<svg xmlns="http://www.w3.org/2000/svg" data-name="Layer 1" viewBox="0 0 100 100" x="0px" y="0px"><title>Artboard 11</title><path d="M98.52,65.86l-16.32-43a6.94,6.94,0,0,0-8.94-4L52,27a2.49,2.49,0,0,0,1.77,4.65L75,23.54a2,2,0,0,1,2.52,1.13l16.32,43a2,2,0,0,1-1.13,2.52L75.55,76.68V45.84a6.94,6.94,0,0,0-6.93-6.93H58.18a2.49,2.49,0,1,0,0,5H68.62a2,2,0,0,1,2,2V91.79a2,2,0,0,1-2,2H35.19V77.87A6.89,6.89,0,0,0,28.31,71H12.44V51.18a2.49,2.49,0,1,0-5,0v22.3a2.49,2.49,0,0,0,.73,1.76L30.95,98a2.49,2.49,0,0,0,1.76.73H68.62a6.94,6.94,0,0,0,6.93-6.93V82l19-7.2a6.93,6.93,0,0,0,4-8.94Zm-68.3,12V90.23L16,76H28.31A1.91,1.91,0,0,1,30.22,77.87Z"></path><path d="M8.72,25.48c.32,0,.65,0,1,0a25.5,25.5,0,0,1,2.39,13.28,6.1,6.1,0,0,0,5.39,6.63,12.06,12.06,0,0,0,1.29.07c3.72,0,8.32-1.55,12.86-4.33l7.19,10.29a2.49,2.49,0,0,0,4.08-2.85L35.71,38.24c4.67-3.7,7.92-8,8.87-11.82a6.1,6.1,0,0,0-4.37-7.34,25.5,25.5,0,0,1-11.65-6.82C30,9.18,29.94,6.34,28.45,4.2,25.38-.19,17.41.43,9.92,5.67a24,24,0,0,0-7.46,8c-1.81,3.4-1.91,6.56-.29,8.88C3.54,24.52,5.88,25.48,8.72,25.48ZM39,23.89a1.11,1.11,0,0,1,.8,1.32c-.77,3.11-4.26,7.2-8.89,10.43S21.19,40.75,18,40.41a1.11,1.11,0,0,1-1-1.21,30.29,30.29,0,0,0-2.39-14.89,27,27,0,0,0,6-3.21,27,27,0,0,0,5.09-4.58A30.29,30.29,0,0,0,39,23.89ZM6.85,16a19.29,19.29,0,0,1,5.92-6.27A17.34,17.34,0,0,1,22,6.26a2.92,2.92,0,0,1,2.4.79c.48.68.24,2.1-.61,3.69A19.28,19.28,0,0,1,17.85,17c-5.45,3.8-10.59,4.14-11.6,2.69C5.77,19,6,17.61,6.85,16Z"></path></svg>